<?xml version="1.0" encoding="utf-8"?>
<!-- Generator: Adobe Illustrator 17.0.0, SVG Export Plug-In . SVG Version: 6.00 Build 0)  -->
<!DOCTYPE svg PUBLIC "-//W3C//DTD SVG 1.1//EN" "http://www.w3.org/Graphics/SVG/1.1/DTD/svg11.dtd">
<svg version="1.1" id="Layer_1" xmlns="http://www.w3.org/2000/svg" xmlns:xlink="http://www.w3.org/1999/xlink" x="0px" y="0px"
	 width="230px" height="230px" viewBox="0 0 230 230" enable-background="new 0 0 230 230" xml:space="preserve">
<g>
	<g id="_x31_20px_icon_1_">
		<path fill="#FFFFFF" d="M230,46.55V230H46.54l-13.77-13.77C11.96,195.42,0,183.45,0,159.53c0-23.92,11.96-35.88,32.77-56.69
			l70.07-70.07C123.65,11.96,135.6,0,159.53,0c23.92,0,35.89,11.97,56.69,32.77L230,46.55z"/>
	</g>
	<g id="_x31_20px_icon_2_">
		<path fill="#231F20" d="M230,70.55V230H70.55l-21.91-21.91c-18.08-18.08-30.63-28.48-30.63-49.28c0-20.79,12.55-31.19,30.63-49.27
			l60.9-60.9c18.08-18.08,28.48-30.63,49.27-30.63c20.8,0,31.2,12.55,49.28,30.63L230,70.55z"/>
	</g>
	<g>
		<path fill="#FFFFFF" d="M175.56,39.343c21.178,21.178-2.815,72.069-34.245,103.499s-81.813,54.915-102.991,33.737l0,0
			c-10.918-10.918-11.858-26.843,1.369-40.07l95.795-95.795C148.717,27.486,164.642,28.425,175.56,39.343L175.56,39.343z"/>
	</g>
	<g>
		<path fill="#231F20" d="M133.831,75.05c-3.441,3.441-3.445,9.022,0.002,12.47c3.445,3.445,9.023,3.438,12.464-0.003
			c3.439-3.439,3.446-9.017,0.001-12.462C142.851,71.607,137.27,71.612,133.831,75.05z"/>
	</g>
	<g>
		<path fill="#231F20" d="M74.941,146.412c3.445,3.445,9.017,3.444,12.458,0.003c3.45-3.45,3.446-9.017,0.001-12.462
			c-3.447-3.447-9.018-3.454-12.467-0.004C71.492,137.39,71.494,142.965,74.941,146.412z"/>
	</g>
	<g>
		<path fill="#231F20" d="M127.056,94.611L93.59,128.077C118.359,152.847,152.937,120.492,127.056,94.611z"/>
		<path fill="#231F20" d="M129.741,130.199L129.741,130.199c-8.527,8.527-23.725,10.583-36.291-1.982
			c-0.078-0.078-0.074-0.205,0-0.279l33.466-33.466c0.079-0.079,0.201-0.078,0.279,0c5.966,5.966,9.155,12.725,9.232,19.561
			C136.493,120.081,134.118,125.822,129.741,130.199z M93.876,128.075c9.379,9.266,24.561,12.866,35.584,1.843
			c4.301-4.301,6.638-9.944,6.576-15.884c-0.076-6.675-3.178-13.289-8.978-19.141L93.876,128.075z"/>
	</g>
</g>
</svg>
